<?xml version="1.0" encoding="UTF-8"?>
<svg id="Layer_2" data-name="Layer 2" xmlns="http://www.w3.org/2000/svg" xmlns:xlink="http://www.w3.org/1999/xlink" viewBox="0 0 973.11 259.1">
  <defs>
    <style>
      .cls-1 {
        fill: #699649;
      }

      .cls-2 {
        fill: #156e82;
      }

      .cls-3 {
        fill: #0e6688;
      }

      .cls-4 {
        fill: url(#radial-gradient);
      }

      .cls-5 {
        fill: #29563e;
      }

      .cls-6 {
        fill: #98b741;
      }

      .cls-7 {
        fill: #03292c;
      }

      .cls-8 {
        fill: #2087a4;
      }

      .cls-9 {
        fill: #06b0d9;
      }
    </style>
    <radialGradient id="radial-gradient" cx="626.81" cy="191.82" fx="626.81" fy="191.82" r="129.34" gradientUnits="userSpaceOnUse">
      <stop offset=".24" stop-color="#2087a4"/>
      <stop offset=".52" stop-color="#1f85a1"/>
      <stop offset=".64" stop-color="#1d7f9a"/>
      <stop offset=".73" stop-color="#1a768e"/>
      <stop offset=".8" stop-color="#16687c"/>
      <stop offset=".87" stop-color="#105665"/>
      <stop offset=".92" stop-color="#0a4049"/>
      <stop offset=".97" stop-color="#03292c"/>
    </radialGradient>
  </defs>
  <g id="Layer_1-2" data-name="Layer 1">
    <path class="cls-2" d="m417.28,207.56l5.71-9.01c9.18,5.42,18.77,8.13,28.77,8.13,7.61,0,13.59-1.5,17.94-4.5,4.34-3,6.52-7.06,6.52-12.19,0-3.81-1.05-6.86-3.15-9.15-2.1-2.29-4.84-3.94-8.24-4.94-3.39-1-7.16-1.79-11.31-2.38-4.15-.59-8.27-1.31-12.37-2.16-4.1-.85-7.86-2.04-11.27-3.55-3.42-1.51-6.17-3.94-8.27-7.28-2.1-3.34-3.15-7.5-3.15-12.48,0-7.32,3.26-13.03,9.77-17.13,6.52-4.1,14.36-6.15,23.54-6.15,12.59,0,23.6,2.86,33.02,8.57l-4.98,8.86c-8.4-4.78-17.74-7.17-28.04-7.17-6.59,0-11.89,1.2-15.89,3.59-4,2.39-6,5.44-6,9.15,0,4.2,1.43,7.44,4.28,9.74,2.86,2.29,6.43,3.73,10.73,4.32,4.29.59,8.92,1.35,13.87,2.31,4.95.95,9.58,2.09,13.87,3.4,4.29,1.32,7.86,3.92,10.69,7.8,2.83,3.88,4.25,8.97,4.25,15.26,0,8.01-3.25,14.39-9.74,19.15-6.49,4.76-15.18,7.14-26.06,7.14-13.28,0-24.77-3.1-34.48-9.3Z"/>
    <g>
      <path class="cls-6" d="m644.94,103.89l-.1-61.54s-1.77-36.04,73.56-41.55c0,0,6.65-.84,6.21,3.68,0,0,8.61,108.08-79.67,99.4Z"/>
      <path class="cls-1" d="m644.84,42.31s0,.03,0,.03l.1,61.54c52.77,5.19,70.92-31.35,76.98-61.57h-77.08Z"/>
      <path class="cls-5" d="m644.89,73.66l.05,30.23c34.7,3.41,54.42-11.22,65.59-30.23h-65.64Z"/>
    </g>
    <g>
      <path class="cls-9" d="m625.72,103.15l.1-61.54S627.58,5.57,552.25.06c0,0-6.65-.84-6.21,3.68,0,0-8.61,108.08,79.67,99.4Z"/>
      <path class="cls-8" d="m625.81,41.58s0,.03,0,.03l-.1,61.54c-52.77,5.19-70.92-31.35-76.98-61.57h77.08Z"/>
      <path class="cls-3" d="m625.76,72.92l-.05,30.23c-34.7,3.41-54.42-11.22-65.59-30.23h65.64Z"/>
    </g>
    <path class="cls-4" d="m546.64,124.74c-24.9,0-45.08,20.18-45.08,45.08v89.08h11.11c5.87,0,10.62-4.76,10.62-10.62v-39.89c6.81,4.13,14.81,6.52,23.36,6.52,24.9,0,45.08-20.18,45.08-45.08s-20.18-45.08-45.08-45.08Zm0,68.44c-12.88,0-23.36-10.48-23.36-23.36s10.48-23.36,23.36-23.36,23.36,10.48,23.36,23.36-10.48,23.36-23.36,23.36Zm159.79-67.9c-25.2,0-45.63,20.43-45.63,45.63s20.43,45.63,45.63,45.63,45.63-20.43,45.63-45.63-20.43-45.63-45.63-45.63Zm0,69.27c-13.03,0-23.64-10.6-23.64-23.64s10.6-23.64,23.64-23.64,23.64,10.6,23.64,23.64-10.6,23.64-23.64,23.64Zm-57.62-68.76v21.87c-12.66.14-22.93,10.34-23.21,22.98h-.03v45.91h-21.86v-45.91h.01c.27-24.73,20.32-44.7,45.08-44.84Z"/>
    <path class="cls-7" d="m79.86,138.17l-7.36,7.21c-7.02-7.02-15.5-10.53-25.47-10.53s-18.25,3.51-25.17,10.53c-6.92,7.02-10.38,15.46-10.38,25.32s3.46,18.46,10.38,25.5c6.92,7.04,15.31,10.56,25.17,10.56s18.3-3.53,25.32-10.6l7.51,7.21c-9.23,9.03-20.17,13.57-32.83,13.62-12.95,0-24.03-4.53-33.23-13.58-9.2-9.05-13.8-19.96-13.8-32.72s4.6-23.64,13.8-32.64c9.2-9,20.28-13.51,33.23-13.51,12.85.05,23.8,4.59,32.83,13.62Z"/>
    <path class="cls-7" d="m174.11,203.41c-9.2,9.05-20.28,13.58-33.23,13.58s-24.03-4.53-33.23-13.58c-9.2-9.05-13.8-19.96-13.8-32.72s4.62-23.64,13.87-32.64c9.25-9,20.3-13.51,33.16-13.51s24.03,4.5,33.23,13.51c9.2,9.01,13.8,19.89,13.8,32.64s-4.6,23.66-13.8,32.72Zm-33.23,3.35c9.96,0,18.37-3.52,25.24-10.56,6.87-7.04,10.3-15.54,10.3-25.5s-3.43-18.42-10.3-25.39c-6.87-6.97-15.29-10.45-25.24-10.45s-18.13,3.51-25.1,10.53c-6.97,7.02-10.45,15.46-10.45,25.32s3.46,18.46,10.38,25.5c6.92,7.04,15.31,10.56,25.17,10.56Z"/>
    <path class="cls-7" d="m284.78,214.42v-17.66h-.29c-3.93,5.84-8.98,10.67-15.16,14.5s-13.32,5.74-21.42,5.74c-12.86,0-23.74-4.5-32.64-13.51-8.9-9-13.36-19.93-13.36-32.79s4.44-23.64,13.32-32.64c8.88-9,19.77-13.51,32.68-13.51,8.24,0,15.42,1.89,21.53,5.67,6.11,3.78,11.13,8.64,15.05,14.57h.29v-43.43h11.19v113.05h-11.19Zm0-43.72c0-9.96-3.51-18.42-10.53-25.39-7.02-6.97-15.46-10.45-25.32-10.45s-18.38,3.48-25.25,10.45c-6.87,6.97-10.3,15.43-10.3,25.39s3.43,18.58,10.3,25.58c6.87,6.99,15.28,10.49,25.25,10.49s18.3-3.5,25.32-10.49c7.02-6.99,10.53-15.52,10.53-25.58Z"/>
    <path class="cls-7" d="m403.29,170.7c0,1.82-.17,3.58-.52,5.3h-81.48c1.32,8.73,5.29,16.05,11.89,21.93,6.6,5.89,14.39,8.83,23.37,8.83,6.72,0,12.87-1.72,18.44-5.15,5.57-3.43,9.92-8,13.07-13.69l8.39,5.81c-4.22,6.92-9.86,12.53-16.93,16.82s-14.72,6.44-22.96,6.44c-12.86,0-23.84-4.53-32.94-13.58-9.1-9.05-13.65-19.96-13.65-32.72s4.55-23.64,13.65-32.64c9.1-9,20.08-13.51,32.94-13.51s23.86,4.5,33.01,13.51c9.15,9.01,13.73,19.89,13.73,32.64Zm-81.99-5.15h70.66c-1.32-8.73-5.33-16.03-12-21.9-6.67-5.86-14.49-8.8-23.44-8.8s-16.73,2.93-23.33,8.8c-6.6,5.86-10.56,13.16-11.89,21.9Z"/>
    <g>
      <path class="cls-2" d="m840.13,128.04v85.8h-11v-14.54h-.29c-2.07,4.44-5.85,8.39-11.32,11.86-5.47,3.47-11.37,5.21-17.69,5.21-10.56,0-18.83-3.13-24.81-9.4-5.98-6.27-8.97-14.54-8.97-24.81v-54.11h10.92v54.11c0,7.23,2.18,13.07,6.55,17.51,4.36,4.44,10.1,6.66,17.22,6.66s13.62-2.52,19.53-7.56c5.91-5.04,8.86-10.98,8.86-17.83v-52.88h11Z"/>
      <path class="cls-2" d="m851.67,128.04h10.06v-19.39h11v19.39h17.8v10.27h-17.8v58.96c0,6.03,3.11,9.04,9.33,9.04,2.07,0,4.2-.75,6.37-2.24l3.69,9.33c-3.47,1.98-6.83,2.97-10.06,2.97-5.93,0-10.8-1.63-14.61-4.88-3.81-3.26-5.72-7.9-5.72-13.93v-59.25h-10.06v-10.27Z"/>
      <path class="cls-2" d="m903.66,207.18l5.64-8.9c9.07,5.35,18.54,8.03,28.43,8.03,7.52,0,13.43-1.48,17.72-4.45,4.29-2.97,6.44-6.98,6.44-12.04,0-3.76-1.04-6.78-3.11-9.04-2.07-2.27-4.79-3.89-8.14-4.88-3.35-.99-7.08-1.77-11.18-2.35-4.1-.58-8.17-1.29-12.23-2.13-4.05-.84-7.77-2.01-11.14-3.51-3.38-1.49-6.1-3.89-8.17-7.2-2.07-3.3-3.11-7.42-3.11-12.33,0-7.23,3.22-12.88,9.66-16.93,6.44-4.05,14.19-6.08,23.26-6.08,12.44,0,23.32,2.82,32.63,8.46l-4.92,8.75c-8.3-4.73-17.53-7.09-27.71-7.09-6.51,0-11.75,1.18-15.7,3.54-3.95,2.36-5.93,5.38-5.93,9.04,0,4.15,1.41,7.36,4.23,9.62,2.82,2.27,6.35,3.69,10.6,4.27,4.24.58,8.81,1.34,13.71,2.28,4.9.94,9.46,2.06,13.71,3.36,4.24,1.3,7.76,3.87,10.56,7.7,2.8,3.83,4.2,8.86,4.2,15.08,0,7.91-3.21,14.22-9.62,18.92-6.41,4.7-15,7.05-25.75,7.05-13.12,0-24.48-3.06-34.07-9.19Z"/>
    </g>
    <g>
      <path class="cls-7" d="m541.62,258.48v-27h1.3v27h-1.3Z"/>
      <path class="cls-7" d="m568.11,231.48v27h-1.3l-18.28-24.84v24.84h-1.3v-27h1.3l18.28,24.84v-24.84h1.3Z"/>
      <path class="cls-7" d="m593.3,231.48v27h-1.3l-18.28-24.84v24.84h-1.3v-27h1.3l18.28,24.84v-24.84h1.3Z"/>
      <path class="cls-7" d="m620.78,235.01c2.76,2.76,4.14,6.08,4.14,9.98s-1.38,7.22-4.14,9.98-6.08,4.14-9.98,4.14-7.24-1.38-9.98-4.14-4.11-6.08-4.11-9.98,1.37-7.22,4.12-9.98,6.07-4.14,9.98-4.14,7.22,1.38,9.98,4.14Zm-.92,19.08c2.5-2.52,3.74-5.55,3.74-9.11s-1.25-6.59-3.74-9.11-5.51-3.78-9.04-3.78-6.55,1.26-9.04,3.78-3.74,5.55-3.74,9.11,1.25,6.59,3.74,9.11,5.51,3.78,9.04,3.78,6.55-1.26,9.04-3.78Z"/>
      <path class="cls-7" d="m648.6,231.48l-11.02,27h-1.21l-11.09-27h1.44l10.25,25.21,10.23-25.21h1.41Z"/>
      <path class="cls-7" d="m670.19,258.48h-1.41l-2.78-6.73h-14.94l-2.76,6.73h-1.44l11.04-27h1.27l11.02,27Zm-18.65-7.96h14.01l-7-17.24-7.01,17.24Z"/>
      <path class="cls-7" d="m689.15,232.71h-9.76v25.77h-1.3v-25.77h-9.79v-1.23h20.85v1.23Z"/>
      <path class="cls-7" d="m691.84,258.48v-27h1.3v27h-1.3Z"/>
      <path class="cls-7" d="m720.63,235.01c2.76,2.76,4.14,6.08,4.14,9.98s-1.38,7.22-4.14,9.98-6.08,4.14-9.98,4.14-7.24-1.38-9.98-4.14-4.11-6.08-4.11-9.98,1.37-7.22,4.12-9.98,6.07-4.14,9.98-4.14,7.22,1.38,9.98,4.14Zm-.92,19.08c2.5-2.52,3.74-5.55,3.74-9.11s-1.25-6.59-3.74-9.11-5.51-3.78-9.04-3.78-6.55,1.26-9.04,3.78-3.74,5.55-3.74,9.11,1.25,6.59,3.74,9.11,5.51,3.78,9.04,3.78,6.55-1.26,9.04-3.78Z"/>
      <path class="cls-7" d="m749.06,231.48v27h-1.3l-18.28-24.84v24.84h-1.3v-27h1.3l18.28,24.84v-24.84h1.3Z"/>
    </g>
  </g>
</svg>